<svg width="55" height="28" viewBox="0 0 55 28" fill="none" xmlns="http://www.w3.org/2000/svg">
<rect width="55" height="28" rx="5" fill="#F2F2F2"/>
<path d="M16.0701 18.1515C15.5943 18.1515 15.1657 18.0668 14.7844 17.8973C14.4063 17.7246 14.1065 17.4704 13.8848 17.1347C13.6665 16.799 13.5573 16.3851 13.5573 15.893C13.5573 15.4693 13.6355 15.1189 13.792 14.8419C13.9484 14.5649 14.1619 14.3433 14.4324 14.1771C14.7029 14.0108 15.0076 13.8854 15.3466 13.8006C15.6888 13.7126 16.0424 13.6491 16.4074 13.61C16.8474 13.5643 17.2043 13.5236 17.478 13.4878C17.7518 13.4486 17.9506 13.39 18.0744 13.3118C18.2015 13.2303 18.2651 13.1048 18.2651 12.9353V12.906C18.2651 12.5377 18.1559 12.2526 17.9376 12.0505C17.7192 11.8484 17.4047 11.7474 16.994 11.7474C16.5606 11.7474 16.2167 11.8419 15.9625 12.0309C15.7116 12.22 15.5421 12.4432 15.4541 12.7007L13.8017 12.466C13.9321 12.0097 14.1472 11.6284 14.447 11.3221C14.7469 11.0125 15.1135 10.7811 15.547 10.6279C15.9805 10.4714 16.4596 10.3932 16.9843 10.3932C17.346 10.3932 17.7062 10.4356 18.0647 10.5203C18.4232 10.6051 18.7507 10.7452 19.0473 10.9408C19.3439 11.133 19.5818 11.3954 19.761 11.7278C19.9435 12.0603 20.0348 12.4758 20.0348 12.9744V18H18.3335V16.9685H18.2749C18.1673 17.1771 18.0158 17.3726 17.8202 17.5551C17.6279 17.7344 17.3851 17.8794 17.0918 17.9902C16.8018 18.0978 16.4612 18.1515 16.0701 18.1515ZM16.5296 16.8512C16.8849 16.8512 17.1929 16.7811 17.4536 16.6409C17.7143 16.4975 17.9147 16.3085 18.0549 16.0739C18.1983 15.8392 18.27 15.5834 18.27 15.3063V14.4215C18.2146 14.4671 18.1201 14.5095 17.9864 14.5486C17.8561 14.5877 17.7094 14.6219 17.5465 14.6513C17.3835 14.6806 17.2222 14.7067 17.0625 14.7295C16.9028 14.7523 16.7643 14.7718 16.6469 14.7881C16.383 14.824 16.1467 14.8827 15.9381 14.9641C15.7295 15.0456 15.5649 15.1597 15.4443 15.3063C15.3237 15.4497 15.2635 15.6355 15.2635 15.8637C15.2635 16.1896 15.3824 16.4356 15.6203 16.6018C15.8582 16.7681 16.1613 16.8512 16.5296 16.8512ZM21.8143 18V10.491H23.5058V11.7669H23.5938C23.7502 11.3367 24.0093 11.0011 24.3711 10.7599C24.7328 10.5154 25.1646 10.3932 25.6665 10.3932C26.175 10.3932 26.6035 10.5171 26.9523 10.7648C27.3043 11.0092 27.5519 11.3433 27.6953 11.7669H27.7736C27.9398 11.3498 28.2201 11.0173 28.6144 10.7697C29.012 10.5187 29.483 10.3932 30.0272 10.3932C30.7182 10.3932 31.282 10.6116 31.7187 11.0483C32.1554 11.485 32.3738 12.1222 32.3738 12.9598V18H30.5992V13.2335C30.5992 12.7675 30.4754 12.4269 30.2277 12.2118C29.98 11.9935 29.6769 11.8843 29.3184 11.8843C28.8914 11.8843 28.5574 12.0179 28.3162 12.2851C28.0783 12.5491 27.9593 12.893 27.9593 13.3167V18H26.2239V13.1602C26.2239 12.7724 26.1065 12.4628 25.8719 12.2314C25.6405 12 25.3374 11.8843 24.9626 11.8843C24.7084 11.8843 24.477 11.9495 24.2684 12.0798C24.0598 12.2069 23.8936 12.3878 23.7697 12.6225C23.6459 12.8539 23.584 13.1244 23.584 13.434V18H21.8143ZM34.2474 18V7.988H36.0171V11.7327H36.0904C36.1817 11.5502 36.3104 11.3563 36.4766 11.151C36.6428 10.9424 36.8677 10.7648 37.1513 10.6181C37.4348 10.4682 37.7966 10.3932 38.2365 10.3932C38.8167 10.3932 39.3398 10.5415 39.8058 10.8381C40.2751 11.1314 40.6467 11.5665 40.9204 12.1434C41.1975 12.717 41.336 13.4209 41.336 14.2553C41.336 15.0798 41.2007 15.7805 40.9302 16.3574C40.6597 16.9343 40.2914 17.3742 39.8254 17.6773C39.3593 17.9804 38.8313 18.132 38.2414 18.132C37.8112 18.132 37.4544 18.0603 37.1708 17.9169C36.8873 17.7735 36.6591 17.6008 36.4864 17.3987C36.3169 17.1934 36.1849 16.9995 36.0904 16.8169H35.9878V18H34.2474ZM35.9829 14.2455C35.9829 14.7311 36.0513 15.1564 36.1882 15.5214C36.3283 15.8865 36.5288 16.1716 36.7895 16.377C37.0535 16.579 37.3729 16.6801 37.7477 16.6801C38.1388 16.6801 38.4663 16.5758 38.7303 16.3672C38.9943 16.1553 39.1931 15.8669 39.3267 15.5019C39.4636 15.1336 39.532 14.7148 39.532 14.2455C39.532 13.7794 39.4652 13.3655 39.3316 13.0038C39.198 12.642 38.9992 12.3585 38.7352 12.1531C38.4712 11.9478 38.142 11.8452 37.7477 11.8452C37.3696 11.8452 37.0486 11.9446 36.7846 12.1434C36.5206 12.3422 36.3202 12.6208 36.1833 12.9793C36.0497 13.3378 35.9829 13.7599 35.9829 14.2455Z" fill="black"/>
</svg>
